<svg width="903" height="955" viewBox="0 0 903 955" fill="none" xmlns="http://www.w3.org/2000/svg">
<mask id="mask0_159_4712" style="mask-type:alpha" maskUnits="userSpaceOnUse" x="0" y="-14" width="969" height="969">
<rect width="969" height="969" transform="translate(0 -14)" fill="url(#paint0_radial_159_4712)"/>
</mask>
<g mask="url(#mask0_159_4712)">
<g clip-path="url(#clip0_159_4712)">
<g opacity="0.5">
<g clip-path="url(#clip1_159_4712)">
<line x1="0.378516" y1="-14" x2="0.378516" y2="955" stroke="#FF0100" stroke-width="0.757031"/>
<line x1="60.941" y1="-14" x2="60.941" y2="955" stroke="#FF0100" stroke-width="0.757031"/>
<line x1="121.504" y1="-14" x2="121.504" y2="955" stroke="#FF0100" stroke-width="0.757031"/>
<line x1="182.066" y1="-14" x2="182.066" y2="955" stroke="#FF0100" stroke-width="0.757031"/>
<line x1="242.629" y1="-14" x2="242.629" y2="955" stroke="#FF0100" stroke-width="0.757031"/>
<line x1="303.191" y1="-14" x2="303.191" y2="955" stroke="#FF0100" stroke-width="0.757031"/>
<line x1="363.754" y1="-14" x2="363.754" y2="955" stroke="#FF0100" stroke-width="0.757031"/>
<line x1="424.316" y1="-14" x2="424.316" y2="955" stroke="#FF0100" stroke-width="0.757031"/>
<line x1="484.879" y1="-14" x2="484.879" y2="955" stroke="#FF0100" stroke-width="0.757031"/>
<line x1="545.441" y1="-14" x2="545.441" y2="955" stroke="#FF0100" stroke-width="0.757031"/>
<line x1="606.004" y1="-14" x2="606.004" y2="955" stroke="#FF0100" stroke-width="0.757031"/>
<line x1="666.566" y1="-14" x2="666.566" y2="955" stroke="#FF0100" stroke-width="0.757031"/>
<line x1="727.129" y1="-14" x2="727.129" y2="955" stroke="#FF0100" stroke-width="0.757031"/>
<line x1="787.691" y1="-14" x2="787.691" y2="955" stroke="#FF0100" stroke-width="0.757031"/>
<line x1="848.254" y1="-14" x2="848.254" y2="955" stroke="#FF0100" stroke-width="0.757031"/>
</g>
<rect x="0.630859" y="-13.3691" width="967.738" height="967.738" stroke="#FF0100" stroke-width="1.26172"/>
</g>
<g opacity="0.5">
<g clip-path="url(#clip2_159_4712)">
<line y1="46.184" x2="969" y2="46.184" stroke="#FF0100" stroke-width="0.757031"/>
<line y1="106.746" x2="969" y2="106.746" stroke="#FF0100" stroke-width="0.757031"/>
<line y1="167.309" x2="969" y2="167.309" stroke="#FF0100" stroke-width="0.757031"/>
<line y1="227.871" x2="969" y2="227.871" stroke="#FF0100" stroke-width="0.757031"/>
<line y1="288.434" x2="969" y2="288.434" stroke="#FF0100" stroke-width="0.757031"/>
<line y1="348.996" x2="969" y2="348.996" stroke="#FF0100" stroke-width="0.757031"/>
<line y1="409.559" x2="969" y2="409.559" stroke="#FF0100" stroke-width="0.757031"/>
<line y1="470.121" x2="969" y2="470.121" stroke="#FF0100" stroke-width="0.757031"/>
<line y1="530.684" x2="969" y2="530.684" stroke="#FF0100" stroke-width="0.757031"/>
<line y1="591.246" x2="969" y2="591.246" stroke="#FF0100" stroke-width="0.757031"/>
<line y1="651.809" x2="969" y2="651.809" stroke="#FF0100" stroke-width="0.757031"/>
<line y1="712.371" x2="969" y2="712.371" stroke="#FF0100" stroke-width="0.757031"/>
<line y1="772.934" x2="969" y2="772.934" stroke="#FF0100" stroke-width="0.757031"/>
<line y1="833.496" x2="969" y2="833.496" stroke="#FF0100" stroke-width="0.757031"/>
<line y1="894.059" x2="969" y2="894.059" stroke="#FF0100" stroke-width="0.757031"/>
<line y1="954.621" x2="969" y2="954.621" stroke="#FF0100" stroke-width="0.757031"/>
</g>
<rect x="0.630859" y="-13.3691" width="967.738" height="967.738" stroke="#FF0100" stroke-width="1.26172"/>
</g>
</g>
<path d="M484.5 334.234L484.5 364.516" stroke="url(#paint1_linear_159_4712)" stroke-width="1.26172"/>
<path d="M499.641 349.375L469.359 349.375" stroke="url(#paint2_linear_159_4712)" stroke-width="1.26172"/>
<path d="M302.812 460.406L302.812 480.594" stroke="url(#paint3_linear_159_4712)" stroke-width="1.26172"/>
<path d="M317.953 470.5L287.672 470.5" stroke="url(#paint4_linear_159_4712)" stroke-width="1.26172"/>
<path d="M788.574 639.57L788.574 662.281" stroke="url(#paint5_linear_159_4712)" stroke-width="1.26172"/>
<path d="M799.93 650.926L777.219 650.926" stroke="url(#paint6_linear_159_4712)" stroke-width="1.26172"/>
<path d="M726.75 460.406L726.75 480.594" stroke="url(#paint7_linear_159_4712)" stroke-width="1.26172"/>
<path d="M736.844 470.5L716.656 470.5" stroke="url(#paint8_linear_159_4712)" stroke-width="1.26172"/>
<path d="M243.512 580.27L243.512 602.98" stroke="url(#paint9_linear_159_4712)" stroke-width="1.26172"/>
<path d="M254.867 591.625L232.156 591.625" stroke="url(#paint10_linear_159_4712)" stroke-width="1.26172"/>
<path d="M728.012 273.672L728.012 303.953" stroke="url(#paint11_linear_159_4712)" stroke-width="1.26172"/>
<path d="M743.152 288.812L712.871 288.812" stroke="url(#paint12_linear_159_4712)" stroke-width="1.26172"/>
<path d="M605.625 393.535L605.625 423.816" stroke="url(#paint13_linear_159_4712)" stroke-width="1.26172"/>
<path d="M620.766 408.676L590.484 408.676" stroke="url(#paint14_linear_159_4712)" stroke-width="1.26172"/>
<circle cx="363.375" cy="409.938" r="2.52344" fill="#FF0100"/>
<circle cx="605.625" cy="288.812" r="2.52344" fill="#FF0100"/>
<circle cx="667.449" cy="531.062" r="2.52344" fill="#FF0100"/>
<circle cx="181.688" cy="470.5" r="2.52344" fill="#FF0100"/>
<rect x="666.188" y="349.375" width="61.8242" height="60.5625" fill="white" fill-opacity="0.2"/>
<rect x="121.125" y="531.062" width="61.8242" height="60.5625" fill="white" fill-opacity="0.2"/>
<rect x="788.574" y="531.062" width="61.8242" height="60.5625" fill="white" fill-opacity="0.2"/>
</g>
<defs>
<radialGradient id="paint0_radial_159_4712" cx="0" cy="0" r="1" gradientUnits="userSpaceOnUse" gradientTransform="translate(484.5 484.5) rotate(90) scale(484.5 484.5)">
<stop/>
<stop offset="1" stop-opacity="0"/>
</radialGradient>
<linearGradient id="paint1_linear_159_4712" x1="484.5" y1="364.516" x2="484.5" y2="334.234" gradientUnits="userSpaceOnUse">
<stop stop-color="white" stop-opacity="0"/>
<stop offset="0.50284" stop-color="white"/>
<stop offset="1" stop-color="white" stop-opacity="0"/>
</linearGradient>
<linearGradient id="paint2_linear_159_4712" x1="469.359" y1="349.375" x2="499.641" y2="349.375" gradientUnits="userSpaceOnUse">
<stop stop-color="white" stop-opacity="0"/>
<stop offset="0.50284" stop-color="white"/>
<stop offset="1" stop-color="white" stop-opacity="0"/>
</linearGradient>
<linearGradient id="paint3_linear_159_4712" x1="302.812" y1="480.594" x2="302.813" y2="460.406" gradientUnits="userSpaceOnUse">
<stop stop-color="white" stop-opacity="0"/>
<stop offset="0.50284" stop-color="white"/>
<stop offset="1" stop-color="white" stop-opacity="0"/>
</linearGradient>
<linearGradient id="paint4_linear_159_4712" x1="287.672" y1="470.5" x2="317.953" y2="470.5" gradientUnits="userSpaceOnUse">
<stop stop-color="white" stop-opacity="0"/>
<stop offset="0.50284" stop-color="white"/>
<stop offset="1" stop-color="white" stop-opacity="0"/>
</linearGradient>
<linearGradient id="paint5_linear_159_4712" x1="788.574" y1="662.281" x2="788.574" y2="639.57" gradientUnits="userSpaceOnUse">
<stop stop-color="white" stop-opacity="0"/>
<stop offset="0.50284" stop-color="white"/>
<stop offset="1" stop-color="white" stop-opacity="0"/>
</linearGradient>
<linearGradient id="paint6_linear_159_4712" x1="777.219" y1="650.926" x2="799.93" y2="650.926" gradientUnits="userSpaceOnUse">
<stop stop-color="white" stop-opacity="0"/>
<stop offset="0.50284" stop-color="white"/>
<stop offset="1" stop-color="white" stop-opacity="0"/>
</linearGradient>
<linearGradient id="paint7_linear_159_4712" x1="726.75" y1="480.594" x2="726.75" y2="460.406" gradientUnits="userSpaceOnUse">
<stop stop-color="white" stop-opacity="0"/>
<stop offset="0.50284" stop-color="white"/>
<stop offset="1" stop-color="white" stop-opacity="0"/>
</linearGradient>
<linearGradient id="paint8_linear_159_4712" x1="716.656" y1="470.5" x2="736.844" y2="470.5" gradientUnits="userSpaceOnUse">
<stop stop-color="white" stop-opacity="0"/>
<stop offset="0.50284" stop-color="white"/>
<stop offset="1" stop-color="white" stop-opacity="0"/>
</linearGradient>
<linearGradient id="paint9_linear_159_4712" x1="243.512" y1="602.98" x2="243.512" y2="580.27" gradientUnits="userSpaceOnUse">
<stop stop-color="white" stop-opacity="0"/>
<stop offset="0.50284" stop-color="white"/>
<stop offset="1" stop-color="white" stop-opacity="0"/>
</linearGradient>
<linearGradient id="paint10_linear_159_4712" x1="232.156" y1="591.625" x2="254.867" y2="591.625" gradientUnits="userSpaceOnUse">
<stop stop-color="white" stop-opacity="0"/>
<stop offset="0.50284" stop-color="white"/>
<stop offset="1" stop-color="white" stop-opacity="0"/>
</linearGradient>
<linearGradient id="paint11_linear_159_4712" x1="728.012" y1="303.953" x2="728.012" y2="273.672" gradientUnits="userSpaceOnUse">
<stop stop-color="white" stop-opacity="0"/>
<stop offset="0.50284" stop-color="white"/>
<stop offset="1" stop-color="white" stop-opacity="0"/>
</linearGradient>
<linearGradient id="paint12_linear_159_4712" x1="712.871" y1="288.812" x2="743.152" y2="288.813" gradientUnits="userSpaceOnUse">
<stop stop-color="white" stop-opacity="0"/>
<stop offset="0.50284" stop-color="white"/>
<stop offset="1" stop-color="white" stop-opacity="0"/>
</linearGradient>
<linearGradient id="paint13_linear_159_4712" x1="605.625" y1="423.816" x2="605.625" y2="393.535" gradientUnits="userSpaceOnUse">
<stop stop-color="white" stop-opacity="0"/>
<stop offset="0.50284" stop-color="white"/>
<stop offset="1" stop-color="white" stop-opacity="0"/>
</linearGradient>
<linearGradient id="paint14_linear_159_4712" x1="590.484" y1="408.676" x2="620.766" y2="408.676" gradientUnits="userSpaceOnUse">
<stop stop-color="white" stop-opacity="0"/>
<stop offset="0.50284" stop-color="white"/>
<stop offset="1" stop-color="white" stop-opacity="0"/>
</linearGradient>
<clipPath id="clip0_159_4712">
<rect width="969" height="969" fill="white" transform="translate(0 -14)"/>
</clipPath>
<clipPath id="clip1_159_4712">
<rect y="-14" width="969" height="969" fill="white"/>
</clipPath>
<clipPath id="clip2_159_4712">
<rect y="-14" width="969" height="969" fill="white"/>
</clipPath>
</defs>
</svg>
